<?xml version="1.0" standalone="no"?><!DOCTYPE svg PUBLIC "-//W3C//DTD SVG 1.1//EN" "http://www.w3.org/Graphics/SVG/1.1/DTD/svg11.dtd"><svg t="1684758498206" class="icon" viewBox="0 0 1024 1024" version="1.1" xmlns="http://www.w3.org/2000/svg" p-id="21979" xmlns:xlink="http://www.w3.org/1999/xlink" width="32" height="32"><path d="M512 326.4c-51.2 0-91.733333 40.533333-91.733333 91.733333 0 46.933333 38.4 91.733333 91.733333 91.733334s91.733333-42.666667 91.733333-91.733334c0-46.933333-36.266667-91.733333-91.733333-91.733333zM832 106.666667H192C145.066667 106.666667 106.666667 145.066667 106.666667 192v640c0 46.933333 38.4 85.333333 85.333333 85.333333h640c46.933333 0 85.333333-38.4 85.333333-85.333333V192c0-46.933333-38.4-85.333333-85.333333-85.333333z m-123.733333 394.666666c-34.133333-10.666667-64-2.133333-89.6 21.333334-57.6 55.466667-113.066667 113.066667-170.666667 170.666666-27.733333 27.733333-59.733333 42.666667-98.133333 44.8-74.666667 6.4-140.8-46.933333-155.733334-115.2-19.2-87.466667 38.4-172.8 132.266667-183.466666 8.533333 0 19.2-2.133333 27.733333 0 6.4 0 6.4 0 6.4-6.4-2.133333-25.6 0-51.2 12.8-74.666667 23.466667-51.2 61.866667-81.066667 117.333334-87.466667 59.733333-8.533333 121.6 23.466667 149.333333 74.666667 14.933333 25.6 19.2 44.8 19.2 74.666667v14.933333c0 4.266667 2.133333 6.4 6.4 4.266667 29.866667-4.266667 59.733333 2.133333 85.333333 17.066666 46.933333 25.6 72.533333 64 78.933334 115.2 2.133333 12.8-2.133333 23.466667-12.8 29.866667-8.533333 6.4-19.2 6.4-29.866667 0-8.533333-4.266667-12.8-12.8-14.933333-23.466667-4.266667-38.4-25.6-66.133333-64-76.8z m96 236.8c-14.933333 0-29.866667-12.8-29.866667-29.866666 0-14.933333 12.8-27.733333 29.866667-27.733334 17.066667 0 27.733333 12.8 27.733333 27.733334 0 17.066667-12.8 29.866667-27.733333 29.866666zM341.333333 497.066667c-51.2-2.133333-91.733333 42.666667-91.733333 91.733333s38.4 91.733333 91.733333 91.733333c55.466667 0 91.733333-44.8 91.733334-91.733333 0-51.2-42.666667-93.866667-91.733334-91.733333z" p-id="21980"></path></svg>